# xmcd
#
# Track frame offsets: 
#        150
#        12200
#        22979
#        34781
#        47398
#        59411
#        70126
#        79470
#        90678
#        103478
#        114952
#        127251
#        137218
#        148756
#        161391
#        172493
#        183337
#
# Disc length: 2582 seconds
#
# Revision: 0
# Processed by: cddbd v1.5.2PL0 Copyright (c) Steve Scherf et al.
# Submitted via: ExactAudioCopyFreeDBPlugin 1.0
#
DISCID=f40a1411
DTITLE=伊東ゆかり - ゆかりのヒット・パレード 第1集 紙ジャケット仕様 SWAX-1023(NKCD-4244)
DYEAR=2019
DGENRE=JPop
TTITLE0=ヴァケイション
TTITLE1=悲しきクラウン
TTITLE2=かわいいベイビー
TTITLE3=コーヒー・デイト
TTITLE4=すてきな16才
TTITLE5=ロコモーション
TTITLE6=レッツ・ゲット・トウゲザー
TTITLE7=ジョニー・エンジェル
TTITLE8=大人になりたい
TTITLE9=セコハン・ラヴ
TTITLE10=ポケット・トランジスター (additional track)
TTITLE11=16個の角砂糖 (additional track)
TTITLE12=ランナウェイ・がール (additional track)
TTITLE13=涙の日記 (additional track)
TTITLE14=愛の果てに (additional track)
TTITLE15=いついつまでも (additional track)
TTITLE16=ジョニー・ジンゴ (additional track)
EXTD=
EXTT0=
EXTT1=
EXTT2=
EXTT3=
EXTT4=
EXTT5=
EXTT6=
EXTT7=
EXTT8=
EXTT9=
EXTT10=
EXTT11=
EXTT12=
EXTT13=
EXTT14=
EXTT15=
EXTT16=
PLAYORDER=
